<svg width="31" height="38" viewBox="0 0 31 38" fill="none" xmlns="http://www.w3.org/2000/svg">
<g clip-path="url(#clip0_60_2945)">
<path d="M25.8885 20.1884C25.9002 21.8301 26.3904 23.4327 27.2985 24.7986C28.2067 26.1646 29.4934 27.2345 31 27.8765C30.3935 29.7958 29.5086 31.6151 28.3737 33.2759C26.7823 35.5922 25.1359 37.8946 22.5388 37.9499C19.995 37.9948 19.1718 36.4351 16.2595 36.4385C13.3473 36.442 12.4379 37.905 10.0234 37.9931C7.5141 38.0881 5.60932 35.4955 4.00766 33.1878C0.735436 28.4741 -1.76179 19.8671 1.59655 14.0375C2.38844 12.6307 3.53003 11.4535 4.91019 10.6205C6.29035 9.78751 7.86204 9.32709 9.47227 9.28409C11.9368 9.23227 14.2514 10.9285 15.7567 10.9285C17.2619 10.9285 20.0846 8.892 23.0485 9.18564C24.4193 9.23572 25.76 9.60175 26.9669 10.2553C28.1739 10.9089 29.2144 11.8326 30.008 12.9545C28.7665 13.7135 27.7372 14.7761 27.0167 16.0428C26.2962 17.3095 25.908 18.7388 25.8885 20.197V20.1884ZM21.0938 6.06618C22.5299 4.38735 23.2434 2.20576 23.0778 0C20.9114 0.209072 18.906 1.23881 17.4703 2.87936C16.756 3.67071 16.2092 4.59922 15.8632 5.60867C15.5171 6.61812 15.3789 7.68751 15.457 8.75209C16.5398 8.76694 17.6115 8.5318 18.5892 8.06486C19.567 7.59793 20.4245 6.91171 21.0955 6.05927" fill="#F2F2F2"/>
</g>
<defs>
<clipPath id="clip0_60_2945">
<rect width="31" height="38" fill="white"/>
</clipPath>
</defs>
</svg>
