<?xml version="1.0" standalone="no"?>
<!DOCTYPE svg PUBLIC "-//W3C//DTD SVG 20010904//EN"
 "http://www.w3.org/TR/2001/REC-SVG-20010904/DTD/svg10.dtd">
<svg version="1.0" xmlns="http://www.w3.org/2000/svg"
 width="16.000000pt" height="16.000000pt" viewBox="0 0 16.000000 16.000000"
 preserveAspectRatio="xMidYMid meet">

<g transform="translate(0.000000,16.000000) scale(0.100000,-0.100000)"
fill="#000000" stroke="none">
<path d="M35 143 c22 -3 45 -9 52 -15 7 -5 17 -7 23 -3 6 3 10 -3 10 -14 0
-19 -6 -21 -54 -21 -30 0 -58 -5 -61 -10 -4 -6 17 -10 54 -10 36 0 61 4 61 11
0 5 5 7 10 4 6 -3 11 -25 11 -48 l2 -42 6 40 c5 27 2 45 -6 56 -7 8 -13 25
-13 37 0 21 -4 22 -67 20 -47 -1 -55 -3 -28 -5z"/>
<path d="M5 110 c3 -5 22 -10 41 -10 19 0 34 5 34 10 0 6 -18 10 -41 10 -24 0
-38 -4 -34 -10z"/>
<path d="M27 43 c18 -2 48 -2 66 0 17 2 3 4 -33 4 -36 0 -50 -2 -33 -4z"/>
<path d="M27 13 c18 -2 48 -2 66 0 17 2 3 4 -33 4 -36 0 -50 -2 -33 -4z"/>
</g>
</svg>
