<svg width="22" height="19" viewBox="0 0 22 19" fill="none" xmlns="http://www.w3.org/2000/svg">
<path d="M16.21 6.99999L11.83 0.439989C11.64 0.159989 11.32 0.019989 11 0.019989C10.68 0.019989 10.36 0.159989 10.17 0.449989L5.79 6.99999H1C0.45 6.99999 0 7.44999 0 7.99999C0 8.08999 0.00999996 8.17999 0.04 8.26999L2.58 17.54C2.81 18.38 3.58 19 4.5 19H17.5C18.42 19 19.19 18.38 19.43 17.54L21.97 8.26999L22 7.99999C22 7.44999 21.55 6.99999 21 6.99999H16.21ZM8 6.99999L11 2.59999L14 6.99999H8ZM11 15C9.9 15 9 14.1 9 13C9 11.9 9.9 11 11 11C12.1 11 13 11.9 13 13C13 14.1 12.1 15 11 15Z" fill="#253E63"/>
</svg>
