<svg width="22" height="20" viewBox="0 0 22 20" fill="none" xmlns="http://www.w3.org/2000/svg">
<path d="M16.21 7.35511L11.83 0.442571C11.64 0.147524 11.32 0 11 0C10.68 0 10.36 0.147524 10.17 0.453109L5.79 7.35511H1C0.45 7.35511 0 7.82929 0 8.40885C0 8.50369 0.00999996 8.59853 0.04 8.69336L2.58 18.4615C2.81 19.3467 3.58 20 4.5 20H17.5C18.42 20 19.19 19.3467 19.43 18.4615L21.97 8.69336L22 8.40885C22 7.82929 21.55 7.35511 21 7.35511H16.21ZM8 7.35511L11 2.71865L14 7.35511H8ZM11 15.785C9.9 15.785 9 14.8367 9 13.6776C9 12.5184 9.9 11.5701 11 11.5701C12.1 11.5701 13 12.5184 13 13.6776C13 14.8367 12.1 15.785 11 15.785Z" fill="#253E63"/>
</svg>
