<svg width="24" height="20" viewBox="0 0 24 20" fill="none" xmlns="http://www.w3.org/2000/svg">
<path d="M17.6836 7.35511L12.9055 0.442571C12.6982 0.147524 12.3491 0 12 0C11.6509 0 11.3018 0.147524 11.0945 0.453109L6.31636 7.35511H1.09091C0.490909 7.35511 0 7.82929 0 8.40885C0 8.50369 0.0109091 8.59853 0.0436363 8.69336L2.81455 18.4615C3.06545 19.3467 3.90545 20 4.90909 20H19.0909C20.0945 20 20.9345 19.3467 21.1964 18.4615L23.9673 8.69336L24 8.40885C24 7.82929 23.5091 7.35511 22.9091 7.35511H17.6836ZM8.72727 7.35511L12 2.71865L15.2727 7.35511H8.72727ZM12 15.785C10.8 15.785 9.81818 14.8367 9.81818 13.6776C9.81818 12.5184 10.8 11.5701 12 11.5701C13.2 11.5701 14.1818 12.5184 14.1818 13.6776C14.1818 14.8367 13.2 15.785 12 15.785Z" fill="#253E63"/>
</svg>
