<svg width="22" height="20" viewBox="0 0 22 20" fill="none" xmlns="http://www.w3.org/2000/svg">
<path d="M11 2.375C12.595 2.375 13.8875 3.55 13.8875 5C13.8875 6.45 12.595 7.625 11 7.625C9.405 7.625 8.1125 6.45 8.1125 5C8.1125 3.55 9.405 2.375 11 2.375ZM11 13.625C15.0838 13.625 19.3875 15.45 19.3875 16.25V17.625H2.6125V16.25C2.6125 15.45 6.91625 13.625 11 13.625ZM11 0C7.96125 0 5.5 2.2375 5.5 5C5.5 7.7625 7.96125 10 11 10C14.0388 10 16.5 7.7625 16.5 5C16.5 2.2375 14.0388 0 11 0ZM11 11.25C7.32875 11.25 0 12.925 0 16.25V20H22V16.25C22 12.925 14.6713 11.25 11 11.25Z" fill="#253E63"/>
</svg>
