<svg width="22" height="21" viewBox="0 0 22 21" fill="none" xmlns="http://www.w3.org/2000/svg">
<path d="M11 2.45091C12.595 2.45091 13.8875 3.66347 13.8875 5.15982C13.8875 6.65617 12.595 7.86872 11 7.86872C9.405 7.86872 8.1125 6.65617 8.1125 5.15982C8.1125 3.66347 9.405 2.45091 11 2.45091ZM11 14.0605C15.0838 14.0605 19.3875 15.9438 19.3875 16.7694V18.1884H2.6125V16.7694C2.6125 15.9438 6.91625 14.0605 11 14.0605ZM11 0C7.96125 0 5.5 2.30902 5.5 5.15982C5.5 8.01062 7.96125 10.3196 11 10.3196C14.0388 10.3196 16.5 8.01062 16.5 5.15982C16.5 2.30902 14.0388 0 11 0ZM11 11.6096C7.32875 11.6096 0 13.3381 0 16.7694V20.6393H22V16.7694C22 13.3381 14.6713 11.6096 11 11.6096Z" fill="#253E63"/>
</svg>
