<svg width="48" height="32" viewBox="0 0 48 32" fill="none" xmlns="http://www.w3.org/2000/svg">
<path d="M0 4C0 1.79086 1.79086 0 4 0H44C46.2091 0 48 1.79086 48 4V28C48 30.2091 46.2091 32 44 32H4C1.79086 32 0 30.2091 0 28V4Z" fill="#E6E6E6"/>
<path d="M37.2104 25.1285C39.054 25.1285 39.9217 24.4251 40.6796 22.2928L44 12.9798H42.0775L39.8509 20.185H39.8119L37.5853 12.9896H35.6084L38.8116 21.8537L38.6401 22.3929C38.5189 23.1646 37.826 23.7152 37.0462 23.6582C36.8973 23.6582 36.6086 23.6428 36.4915 23.6273V25.0911C36.7298 25.1237 36.9705 25.1391 37.2104 25.1383V25.1285ZM30.8039 20.4647C29.7955 20.4647 29.1555 19.9768 29.1555 19.2384C29.1555 18.4731 29.7727 18.0275 30.9527 17.9567L33.054 17.8242V18.5122C33.0077 19.6458 32.0505 20.5282 30.9169 20.4818C30.8787 20.4802 30.8413 20.4769 30.8039 20.4737V20.4647ZM30.2964 21.9098C31.4406 21.9407 32.5108 21.3446 33.0858 20.3549H33.1248V21.8187H34.8748V15.7562C34.8748 13.998 33.4688 12.8652 31.304 12.8652C29.2962 12.8652 27.8112 14.0134 27.7567 15.5919H29.4604C29.6637 14.7893 30.4265 14.2598 31.2495 14.3493C32.4059 14.3493 33.054 14.8885 33.054 15.8806V16.5523L30.6957 16.693C28.5 16.8256 27.3127 17.7242 27.3127 19.2872C27.3111 20.8721 28.5374 21.9188 30.2956 21.9188L30.2964 21.9098ZM20.1547 11.2298H22.3342C23.9753 11.2298 24.9129 12.1048 24.9129 13.6442C24.9129 15.1837 23.9753 16.066 22.3269 16.066H20.1547V11.2298ZM18.264 9.63588V21.8163H20.1547V17.664H22.7725C24.9048 17.7787 26.7256 16.1433 26.8402 14.011C26.8467 13.8898 26.8475 13.7695 26.8427 13.6483C26.9435 11.5396 25.3163 9.74892 23.2076 9.64726C23.0831 9.64157 22.9595 9.64238 22.8351 9.64808L18.264 9.63588ZM11.9884 11.9088C10.9019 11.8462 9.9724 12.5261 9.45682 12.5261C8.94124 12.5261 8.14428 11.9405 7.28471 11.9568C6.1462 11.9861 5.10853 12.6163 4.55798 13.6133C3.38613 15.6293 4.25302 18.6138 5.38584 20.2541C5.94045 21.0673 6.60567 21.9578 7.47988 21.9261C8.30774 21.8952 8.63628 21.3869 9.63654 21.3869C10.6368 21.3869 10.9336 21.9261 11.8087 21.9098C12.7146 21.8944 13.2855 21.0966 13.8417 20.2834C14.2337 19.7076 14.5386 19.0774 14.7476 18.413C13.6799 17.9462 12.9878 16.8947 12.9821 15.7293C12.9984 14.7014 13.5367 13.7532 14.4118 13.214C13.8539 12.422 12.9585 11.9357 11.99 11.9015L11.9884 11.9088ZM11.3101 10.8329C10.8344 11.4323 10.1066 11.7763 9.34134 11.7624C9.29255 11.0159 9.54628 10.2816 10.0448 9.72371C10.5408 9.14795 11.2402 8.78688 11.9965 8.71613C12.0502 9.48381 11.8038 10.2417 11.3085 10.8305" fill="black"/>
</svg>
