<svg width="48" height="32" viewBox="0 0 48 32" fill="none" xmlns="http://www.w3.org/2000/svg">
<path d="M0 4C0 1.79086 1.79086 0 4 0H44C46.2091 0 48 1.79086 48 4V28C48 30.2091 46.2091 32 44 32H4C1.79086 32 0 30.2091 0 28V4Z" fill="#D8E3F3"/>
<path d="M41.31 10.035H38.7954C38.0352 10.035 37.4504 10.269 37.0995 11.0292L32.3042 21.9649H35.696C35.696 21.9649 36.2808 20.5029 36.3978 20.152C36.7486 20.152 40.082 20.152 40.5498 20.152C40.6668 20.5614 40.9592 21.9064 40.9592 21.9064H44.0001L41.31 10.035ZM37.3334 17.6959C37.6258 16.9941 38.62 14.3625 38.62 14.3625C38.62 14.421 38.9124 13.6608 39.0293 13.2514L39.2633 14.304C39.2633 14.304 39.9065 17.1695 40.0235 17.7543H37.3334V17.6959Z" fill="#3362AB"/>
<path d="M32.538 18.0468C32.538 20.5029 30.3158 22.1403 26.8655 22.1403C25.4035 22.1403 24 21.8479 23.2397 21.497L23.7076 18.807L24.1169 18.9824C25.1696 19.4503 25.8713 19.6257 27.1579 19.6257C28.0935 19.6257 29.0877 19.2748 29.0877 18.4561C29.0877 17.9298 28.6783 17.5789 27.3918 16.9941C26.1637 16.4093 24.5263 15.4737 24.5263 13.7777C24.5263 11.4386 26.807 9.85962 30.0234 9.85962C31.2514 9.85962 32.3041 10.0935 32.9473 10.3859L32.4795 12.959L32.2456 12.7251C31.6608 12.4912 30.9006 12.2573 29.7895 12.2573C28.5614 12.3158 27.9766 12.8421 27.9766 13.3099C27.9766 13.8362 28.6783 14.2456 29.7895 14.7719C31.6608 15.6491 32.538 16.6432 32.538 18.0468Z" fill="#3362AB"/>
<path d="M4 10.1521L4.05848 9.91815H9.08772C9.78947 9.91815 10.3158 10.1521 10.4912 10.9123L11.6023 16.1755C10.4912 13.3684 7.91813 11.0877 4 10.1521Z" fill="#F9B50B"/>
<path d="M18.6783 10.035L13.5906 21.9064H10.1403L7.21631 11.9649C9.32157 13.3099 11.076 15.4152 11.7192 16.8771L12.0701 18.1052L15.228 9.97656H18.6783V10.035Z" fill="#3362AB"/>
<path d="M20.0233 9.97656H23.2397L21.1929 21.9064H17.9766L20.0233 9.97656Z" fill="#3362AB"/>
</svg>
