<svg width="48" height="32" viewBox="0 0 48 32" fill="none" xmlns="http://www.w3.org/2000/svg">
<path d="M0 4C0 1.79086 1.79086 0 4 0H44C46.2091 0 48 1.79086 48 4V28C48 30.2091 46.2091 32 44 32H4C1.79086 32 0 30.2091 0 28V4Z" fill="#CCDEFF"/>
<path d="M10.7708 11.5174C10.2695 11.1728 9.61522 11 8.8081 11H5.6834C5.43597 11 5.29927 11.1237 5.2733 11.371L4.00398 19.3388C3.99079 19.4171 4.01037 19.4887 4.06254 19.5537C4.11442 19.6189 4.17966 19.6513 4.2578 19.6513H5.74202C6.00234 19.6513 6.14542 19.5279 6.17169 19.2803L6.52316 17.1322C6.536 17.0281 6.58178 16.9435 6.65992 16.8783C6.738 16.8132 6.83566 16.7707 6.95284 16.7512C7.07001 16.7319 7.18051 16.7221 7.28485 16.7221C7.3889 16.7221 7.51252 16.7287 7.65596 16.7416C7.79905 16.7546 7.89026 16.761 7.92936 16.761C9.04897 16.761 9.92777 16.4455 10.5658 15.8138C11.2036 15.1825 11.5228 14.3071 11.5228 13.1871C11.5228 12.419 11.2719 11.8624 10.7708 11.5172V11.5174ZM9.15976 13.9099C9.09445 14.3657 8.9254 14.665 8.65201 14.8082C8.37855 14.9517 7.98798 15.0231 7.48029 15.0231L6.83578 15.0425L7.16785 12.9529C7.19376 12.8098 7.27834 12.7381 7.42167 12.7381H7.79284C8.31337 12.7381 8.69116 12.8132 8.92552 12.9627C9.15976 13.1125 9.2379 13.4283 9.15976 13.9099Z" fill="#003087"/>
<path d="M43.7458 11H42.3008C42.1571 11 42.0726 11.0716 42.0468 11.215L40.7774 19.3392L40.7578 19.3782C40.7578 19.4437 40.7838 19.5052 40.8361 19.5638C40.8878 19.6223 40.9532 19.6516 41.0313 19.6516H42.3204C42.5674 19.6516 42.7041 19.5282 42.7306 19.2806L43.9999 11.2931V11.2737C43.9998 11.0913 43.9149 11.0002 43.7458 11.0002V11Z" fill="#009CDE"/>
<path d="M26.2868 14.1445C26.2868 14.0795 26.2607 14.0176 26.2089 13.9591C26.1567 13.9006 26.098 13.8711 26.0331 13.8711H24.5294C24.3859 13.8711 24.2687 13.9365 24.1777 14.0663L22.1076 17.113L21.2484 14.1836C21.1829 13.9755 21.0399 13.8711 20.8187 13.8711H19.3538C19.2886 13.8711 19.23 13.9005 19.1782 13.9591C19.126 14.0176 19.1001 14.0797 19.1001 14.1445C19.1001 14.1707 19.2271 14.5546 19.4809 15.2967C19.7347 16.0391 20.0081 16.8398 20.3011 17.6992C20.5941 18.5583 20.7469 19.0143 20.76 19.0659C19.6923 20.5243 19.1587 21.3055 19.1587 21.4094C19.1587 21.5789 19.2432 21.6634 19.4126 21.6634H20.9163C21.0595 21.6634 21.1766 21.5984 21.2679 21.4682L26.248 14.2811C26.2738 14.2553 26.2868 14.21 26.2868 14.1444V14.1445Z" fill="#003087"/>
<path d="M40.2897 13.8712H38.8055C38.623 13.8712 38.5128 14.0861 38.4737 14.5158C38.1347 13.9951 37.5167 13.7345 36.6182 13.7345C35.6808 13.7345 34.8833 14.0861 34.2259 14.7891C33.5684 15.4922 33.2397 16.3192 33.2397 17.2695C33.2397 18.0378 33.4643 18.6497 33.9134 19.1052C34.3626 19.5612 34.9646 19.7888 35.72 19.7888C36.0975 19.7888 36.4816 19.7105 36.8722 19.5544C37.2627 19.3982 37.5684 19.19 37.7902 18.9295C37.7902 18.9425 37.7769 19.0009 37.7511 19.105C37.7248 19.2094 37.712 19.2877 37.712 19.3394C37.712 19.548 37.7964 19.6518 37.9659 19.6518H39.3135C39.5606 19.6518 39.704 19.5284 39.7429 19.2808L40.5437 14.1836C40.5566 14.1054 40.5371 14.0339 40.4851 13.9688C40.4328 13.9038 40.3678 13.8712 40.2897 13.8712ZM37.7412 17.7186C37.4092 18.0442 37.0088 18.2068 36.5402 18.2068C36.1624 18.2068 35.8567 18.1028 35.6223 17.8944C35.3878 17.6865 35.2706 17.4001 35.2706 17.0351C35.2706 16.5537 35.4334 16.1465 35.759 15.8145C36.084 15.4825 36.488 15.3166 36.9698 15.3166C37.334 15.3166 37.6368 15.424 37.8779 15.6387C38.1185 15.8536 38.2393 16.1498 38.2393 16.5275C38.2392 16.9961 38.0732 17.3933 37.7412 17.7186Z" fill="#009CDE"/>
<path d="M18.1039 13.8712H16.6197C16.4371 13.8712 16.3267 14.0861 16.2876 14.5158C15.9361 13.9951 15.3176 13.7345 14.4323 13.7345C13.4949 13.7345 12.6973 14.0861 12.0399 14.7891C11.3823 15.4922 11.0537 16.3192 11.0537 17.2695C11.0537 18.0378 11.2783 18.6497 11.7275 19.1052C12.1767 19.5612 12.7787 19.7888 13.534 19.7888C13.8983 19.7888 14.2761 19.7105 14.6666 19.5544C15.0572 19.3982 15.3697 19.19 15.604 18.9295C15.5518 19.0856 15.5259 19.2223 15.5259 19.3394C15.5259 19.548 15.6105 19.6518 15.7798 19.6518H17.1273C17.3745 19.6518 17.5179 19.5284 17.557 19.2808L18.3576 14.1836C18.3705 14.1054 18.351 14.0339 18.2991 13.9688C18.2469 13.9038 18.1819 13.8712 18.1039 13.8712ZM15.5553 17.7283C15.2233 18.0477 14.8162 18.2068 14.3348 18.2068C13.957 18.2068 13.6543 18.1028 13.4266 17.8944C13.1987 17.6865 13.0848 17.4001 13.0848 17.0351C13.0848 16.5537 13.2475 16.1465 13.5731 15.8145C13.8984 15.4825 14.302 15.3165 14.7839 15.3165C15.1483 15.3165 15.451 15.424 15.6921 15.6387C15.9328 15.8536 16.0534 16.1498 16.0534 16.5275C16.0533 17.0092 15.8873 17.4097 15.5553 17.7283Z" fill="#003087"/>
<path d="M32.9565 11.5174C32.4552 11.1728 31.8011 11 30.9938 11H27.8886C27.6281 11 27.4848 11.1237 27.459 11.371L26.1895 19.3388C26.1763 19.4171 26.1959 19.4887 26.2481 19.5537C26.2998 19.6189 26.3652 19.6513 26.4433 19.6513H28.0447C28.2009 19.6513 28.305 19.5668 28.3572 19.3975L28.7088 17.1322C28.7217 17.0281 28.7673 16.9435 28.8455 16.8783C28.9237 16.8132 29.0212 16.7707 29.1385 16.7512C29.2556 16.7319 29.366 16.7221 29.4704 16.7221C29.5746 16.7221 29.6981 16.7287 29.8414 16.7416C29.9846 16.7546 30.076 16.761 30.1148 16.761C31.2347 16.761 32.1133 16.4455 32.7514 15.8138C33.3894 15.1825 33.7083 14.3071 33.7083 13.1871C33.7084 12.419 33.4576 11.8624 32.9565 11.5172V11.5174ZM30.9548 14.73C30.6683 14.9253 30.2386 15.0229 29.6659 15.0229L29.0408 15.0425L29.3728 12.9527C29.3986 12.8097 29.4833 12.738 29.6267 12.738H29.9781C30.2645 12.738 30.4923 12.751 30.6619 12.777C30.8308 12.8032 30.9938 12.8844 31.15 13.021C31.3064 13.1578 31.3844 13.3564 31.3844 13.6167C31.3844 14.1637 31.241 14.5346 30.9548 14.73Z" fill="#009CDE"/>
</svg>
