<svg width="50" height="32" viewBox="0 0 50 32" fill="none" xmlns="http://www.w3.org/2000/svg">
<path d="M0 4C0 1.79086 1.86548 0 4.16667 0H45.8333C48.1345 0 50 1.79086 50 4V28C50 30.2091 48.1345 32 45.8333 32H4.16667C1.86548 32 0 30.2091 0 28V4Z" fill="#FCE6CF"/>
<path d="M31.9901 19.0906C32.4053 19.2615 32.5833 19.8309 32.5833 20.1157C32.6426 20.5712 32.5239 20.799 32.346 20.799C32.168 20.799 31.9308 20.6282 31.6935 20.2296C31.4562 19.8309 31.3376 19.4323 31.4562 19.2045C31.6342 19.0906 31.8121 19.0337 31.9901 19.0906Z" fill="#F28A1A"/>
<path d="M29.5581 20.856C29.7954 20.856 30.092 20.9698 30.3886 21.1976C30.8631 21.5963 31.0411 22.0518 30.8038 22.3935C30.6852 22.5643 30.3886 22.6782 30.1513 22.6782C29.8547 22.6782 29.5581 22.5643 29.3802 22.3935C28.9056 21.9949 28.787 21.4254 29.0836 21.0837C29.1429 20.9698 29.3208 20.856 29.5581 20.856Z" fill="#F28A1A"/>
<path d="M23.9229 25.3547C17.7538 25.3547 12.771 20.5712 12.771 14.7058C12.771 8.84039 17.7538 4 23.9229 4C30.092 4 35.0748 8.78344 35.0748 14.7058C35.0748 16.6989 34.4816 18.5781 33.5325 20.1726C33.4732 20.2295 33.4138 20.2295 33.4138 20.1157C32.9986 17.4961 31.3377 16.0725 28.965 15.6169C28.7277 15.56 28.7277 15.4461 29.0243 15.4461C29.7954 15.3892 30.8038 15.3892 31.397 15.503C31.4563 15.2183 31.4563 14.9336 31.4563 14.7058C31.4563 10.8335 28.1345 7.64453 24.1008 7.64453C20.0672 7.64453 16.7453 10.8335 16.7453 14.7058C16.7453 18.5781 20.0672 21.7671 24.1008 21.7671H24.4567C24.3381 21.1407 24.2788 20.5143 24.3381 19.8309C24.3381 19.3754 24.4567 19.3184 24.6347 19.6601C25.6431 21.3685 27.1261 22.8491 29.9734 23.4755C32.2868 23.988 34.6002 24.5574 37.1509 27.5756C37.3882 27.8603 37.0323 28.145 36.795 27.9172C34.2443 25.7533 31.9309 25.013 29.7954 25.013C27.1261 25.0699 25.5245 25.3547 23.9229 25.3547Z" fill="#F28A1A"/>
</svg>
