<svg width="120" height="50" viewBox="0 0 120 50" fill="none" xmlns="http://www.w3.org/2000/svg">
<rect width="120" height="50" fill="white"/>
<g clip-path="url(#clip0_55_2927)">
<path d="M69.8885 26.1884C69.9002 27.8301 70.3904 29.4327 71.2985 30.7986C72.2067 32.1646 73.4934 33.2345 75 33.8765C74.3935 35.7958 73.5086 37.6151 72.3737 39.2759C70.7823 41.5922 69.1359 43.8946 66.5388 43.9499C63.995 43.9948 63.1718 42.4351 60.2595 42.4385C57.3473 42.442 56.4379 43.905 54.0234 43.9931C51.5141 44.0881 49.6093 41.4955 48.0077 39.1878C44.7354 34.4741 42.2382 25.8671 45.5965 20.0375C46.3884 18.6307 47.53 17.4535 48.9102 16.6205C50.2903 15.7875 51.862 15.3271 53.4723 15.2841C55.9368 15.2323 58.2514 16.9285 59.7567 16.9285C61.2619 16.9285 64.0846 14.892 67.0485 15.1856C68.4193 15.2357 69.76 15.6017 70.9669 16.2553C72.1739 16.9089 73.2144 17.8326 74.008 18.9545C72.7665 19.7135 71.7372 20.7761 71.0167 22.0428C70.2962 23.3095 69.908 24.7388 69.8885 26.197V26.1884ZM65.0938 12.0662C66.5299 10.3873 67.2434 8.20576 67.0778 6C64.9114 6.20907 62.906 7.23881 61.4703 8.87936C60.756 9.67071 60.2092 10.5992 59.8632 11.6087C59.5171 12.6181 59.3789 13.6875 59.457 14.7521C60.5398 14.7669 61.6115 14.5318 62.5892 14.0649C63.567 13.5979 64.4245 12.9117 65.0955 12.0593" fill="black"/>
</g>
<defs>
<clipPath id="clip0_55_2927">
<rect width="31" height="38" fill="white" transform="translate(44 6)"/>
</clipPath>
</defs>
</svg>
