<svg width="99" height="25" viewBox="0 0 99 25" fill="none" xmlns="http://www.w3.org/2000/svg">
<path d="M44.7975 9.7502L46.6785 8.3502H40.4415V16.6502H46.6785V15.2502H42.2235V13.1502H45.9855V11.7502H42.2235V9.7502H44.7975ZM37.026 9.7502L38.907 8.3502H31.779V16.6502H35.4915C37.5705 16.6502 38.7585 15.7002 38.7585 14.0502C38.7585 12.4502 37.6695 11.6002 35.6895 11.6002H33.5115V9.7502H37.026V9.7502ZM35.442 12.9502C36.5805 12.9502 37.0755 13.3502 37.0755 14.1002C37.0755 14.8502 36.531 15.2502 35.442 15.2502H33.561V12.9502H35.442ZM51.678 8.3502H48.312V16.6502H50.094V14.3002H51.7275C53.9055 14.3002 55.242 13.1502 55.242 11.3002C55.242 9.4502 53.856 8.3502 51.678 8.3502V8.3502ZM51.678 12.9002H50.094V9.7002H51.678C52.8165 9.7002 53.46 10.2502 53.46 11.3002C53.4105 12.3502 52.8165 12.9002 51.678 12.9002ZM28.7595 14.8502C28.2645 15.1002 27.7695 15.2502 27.225 15.2502C25.641 15.2502 24.453 14.1002 24.453 12.5002C24.453 10.9002 25.5915 9.7502 27.225 9.7502C27.819 9.7502 28.3635 9.9502 28.8585 10.2502L30.1455 9.3002L30.0465 9.2002C29.304 8.5502 28.314 8.2002 27.1755 8.2002C25.938 8.2002 24.849 8.6002 24.0075 9.4002C23.2155 10.2002 22.7205 11.3002 22.77 12.4502C22.77 13.6002 23.2155 14.7002 24.0075 15.5502C24.849 16.3502 25.9875 16.8002 27.126 16.7502C28.413 16.7502 29.502 16.3002 30.294 15.5002L29.1555 14.6502L28.7595 14.8502ZM82.17 11.7502H78.3585V8.3502H76.5765V16.6502H78.3585V13.2502H82.17V16.6502H83.952V8.3502H82.17V11.7502ZM70.1415 8.3502L66.5775 16.6502H68.3595L69.0525 15.0002H72.8145L73.5075 16.6502H75.3885L71.9235 8.3502H70.1415V8.3502ZM69.6465 13.6002L71.0325 10.2502L72.3195 13.6002H69.6465ZM90.387 12.3502L93.6045 8.3502H91.575L88.902 11.9002H87.912V8.3502H86.13V16.6502H87.912V13.3002H89.0505L91.773 16.6502H94.05L90.387 12.3502ZM62.865 11.6002H60.687V9.7502H65.34V8.3502H58.905V16.6502H62.6175C64.6965 16.6502 65.8845 15.7002 65.8845 14.0502C65.934 12.4502 64.845 11.6002 62.865 11.6002V11.6002ZM62.568 15.3002H60.687V13.0002H62.568C63.7065 13.0002 64.2015 13.4002 64.2015 14.1502C64.251 14.9002 63.657 15.3002 62.568 15.3002V15.3002Z" fill="#21A038"/>
<path d="M17.068 8.19066C17.3894 8.61597 17.6614 9.07804 17.8787 9.56759L11.7165 14.2177L9.14111 12.5651V10.5769L11.7165 12.2295L17.068 8.19066Z" fill="#21A038"/>
<path d="M6.51281 12.4247C6.51281 12.3355 6.51494 12.2469 6.51919 12.1588L4.95845 12.0805C4.95314 12.1947 4.94995 12.31 4.94995 12.4263C4.94929 13.3355 5.12398 14.2358 5.46401 15.0757C5.80404 15.9156 6.30271 16.6785 6.93142 17.3206L8.03848 16.1879C7.55453 15.6945 7.1706 15.108 6.90878 14.4622C6.64695 13.8164 6.51238 13.1239 6.51281 12.4247Z" fill="url(#paint0_linear_42_2799)"/>
<path d="M11.7151 7.09963C11.8022 7.09963 11.8888 7.1029 11.9748 7.10724L12.0529 5.50899C11.941 5.50355 11.8284 5.50083 11.7151 5.50083C10.8265 5.49972 9.94655 5.67829 9.12563 6.02629C8.30471 6.37429 7.55903 6.88487 6.9314 7.5287L8.03847 8.662C8.52049 8.16641 9.09346 7.77325 9.72443 7.50512C10.3554 7.237 11.0319 7.09919 11.7151 7.09963Z" fill="url(#paint1_linear_42_2799)"/>
<path d="M11.7151 17.7504C11.628 17.7504 11.5414 17.7504 11.4548 17.7433L11.3767 19.3411C11.489 19.3469 11.6018 19.3498 11.7151 19.3498C12.6033 19.3507 13.4828 19.172 14.3033 18.8239C15.1238 18.4758 15.869 17.9652 16.4961 17.3214L15.3912 16.1886C14.9091 16.6839 14.3362 17.0769 13.7053 17.3449C13.0745 17.6129 12.3981 17.7508 11.7151 17.7504Z" fill="url(#paint2_linear_42_2799)"/>
<path d="M14.6474 8.02873L15.9627 7.03627C14.7605 6.03972 13.2598 5.49723 11.7129 5.50001V7.09936C12.7604 7.09803 13.7836 7.42209 14.6474 8.02873Z" fill="url(#paint3_linear_42_2799)"/>
<path d="M18.4797 12.425C18.4805 12.0089 18.445 11.5936 18.3734 11.184L16.9174 12.2825C16.9174 12.3298 16.9174 12.3771 16.9174 12.425C16.9177 13.1691 16.7654 13.9049 16.4702 14.5849C16.1749 15.2648 15.7434 15.8737 15.2036 16.3719L16.2539 17.5602C16.9556 16.9116 17.5164 16.1194 17.8999 15.2347C18.2833 14.3501 18.4809 13.3928 18.4797 12.425Z" fill="#21A038"/>
<path d="M11.7151 17.7507C10.9882 17.7509 10.2693 17.5949 9.605 17.2927C8.94074 16.9905 8.34587 16.5488 7.85892 15.9963L6.69873 17.0709C7.33219 17.7894 8.1061 18.3636 8.97028 18.7562C9.83446 19.1488 10.7696 19.3511 11.7151 19.35V17.7507Z" fill="url(#paint4_linear_42_2799)"/>
<path d="M8.22654 8.47786L7.17684 7.28963C6.47487 7.93806 5.91387 8.73029 5.53024 9.61495C5.14661 10.4996 4.94891 11.4569 4.94996 12.4248H6.51282C6.51249 11.6808 6.66488 10.9449 6.9601 10.265C7.25532 9.58506 7.68678 8.9762 8.22654 8.47786Z" fill="url(#paint5_linear_42_2799)"/>
<defs>
<linearGradient id="paint0_linear_42_2799" x1="7.24749" y1="17.1211" x2="5.46739" y2="12.0943" gradientUnits="userSpaceOnUse">
<stop offset="0.14" stop-color="#F1E813"/>
<stop offset="0.3" stop-color="#E6E418"/>
<stop offset="0.58" stop-color="#C9DA26"/>
<stop offset="0.89" stop-color="#A2CC39"/>
</linearGradient>
<linearGradient id="paint1_linear_42_2799" x1="7.37762" y1="7.81148" x2="11.8013" y2="6.16471" gradientUnits="userSpaceOnUse">
<stop offset="0.06" stop-color="#0FA7DF"/>
<stop offset="0.54" stop-color="#0098F8"/>
<stop offset="0.92" stop-color="#0290EA"/>
</linearGradient>
<linearGradient id="paint2_linear_42_2799" x1="11.2737" y1="18.3845" x2="16.258" y2="17.2845" gradientUnits="userSpaceOnUse">
<stop offset="0.12" stop-color="#A2CC39"/>
<stop offset="0.28" stop-color="#86C239"/>
<stop offset="0.87" stop-color="#219F38"/>
</linearGradient>
<linearGradient id="paint3_linear_42_2799" x1="11.3878" y1="6.03566" x2="15.6567" y2="7.32253" gradientUnits="userSpaceOnUse">
<stop offset="0.06" stop-color="#0290EA"/>
<stop offset="0.79" stop-color="#0C89CA"/>
</linearGradient>
<linearGradient id="paint4_linear_42_2799" x1="7.09077" y1="16.8762" x2="11.7449" y2="18.5754" gradientUnits="userSpaceOnUse">
<stop offset="0.13" stop-color="#F1E813"/>
<stop offset="0.3" stop-color="#EAE616"/>
<stop offset="0.53" stop-color="#D8DF1F"/>
<stop offset="0.8" stop-color="#BAD52D"/>
<stop offset="0.98" stop-color="#A2CC39"/>
</linearGradient>
<linearGradient id="paint5_linear_42_2799" x1="5.53217" y1="12.6184" x2="7.467" y2="7.70175" gradientUnits="userSpaceOnUse">
<stop offset="0.07" stop-color="#A2CC39"/>
<stop offset="0.26" stop-color="#81C45E"/>
<stop offset="0.92" stop-color="#0FA7DF"/>
</linearGradient>
</defs>
</svg>
