<svg width="99" height="25" viewBox="0 0 99 25" fill="none" xmlns="http://www.w3.org/2000/svg">
<path d="M8.90991 20.298H19.696V22.5556H8.90991V20.298ZM86.912 13.0509L90.3127 9.26497H87.7783L84.9914 12.4116V9.26497H82.9718V17.2214H85.0013V13.87L87.9812 17.2214H90.5849L86.912 13.0509ZM20.884 13.5753C20.8295 15.0737 20.6414 15.3584 19.8197 15.3584V17.2264H20.1266C22.1908 17.2264 22.6808 16.1525 22.7551 13.7601L22.8442 11.113H24.7499V17.2214H26.7695V9.26497H21.0226L20.884 13.5753ZM12.1175 14.9438H16.3745L17.0824 17.2214H19.4435L16.2607 7.65172C15.9538 6.72772 15.5974 5.99352 14.3797 5.99352C13.162 5.99352 12.7907 6.72772 12.464 7.65172L9.12771 17.2214H11.3453L12.1175 14.9438V14.9438ZM14.2757 8.49081H14.3302L15.7558 13.0259H12.7561L14.2757 8.49081ZM61.4542 10.3938H59.2019V8.14618H64.4291V6.14835H57.0833V17.2214H61.4542C63.8747 17.2214 65.2657 16.0027 65.2657 13.7751C65.2657 11.6624 63.8549 10.3938 61.4542 10.3938V10.3938ZM61.3502 15.2185H59.2019V12.3416H61.3502C62.4689 12.3416 63.0976 12.8411 63.0976 13.7801C63.0976 14.7191 62.4689 15.2185 61.3502 15.2185ZM41.377 9.08017V6.13336H39.3623V9.08017C38.3044 9.11539 37.3037 9.57279 36.5797 10.3519C35.8558 11.1311 35.4679 12.1682 35.5013 13.2357C35.4653 14.3053 35.8518 15.3456 36.5759 16.1277C37.2999 16.9098 38.3022 17.3697 39.3623 17.4062V20.4029H41.3819V17.4062C41.907 17.3887 42.4236 17.267 42.902 17.0479C43.3804 16.8287 43.8112 16.5165 44.1699 16.1291C44.5285 15.7417 44.8079 15.2868 44.992 14.7902C45.1762 14.2937 45.2614 13.7655 45.2429 13.2357C45.2641 12.7056 45.1804 12.1765 44.9968 11.6794C44.8132 11.1822 44.5332 10.7269 44.1734 10.3401C43.8135 9.95333 43.3809 9.64267 42.9008 9.42635C42.4206 9.21003 41.9026 9.09236 41.377 9.08017V9.08017ZM39.3673 15.4832C38.8328 15.424 38.3428 15.1551 38.0029 14.7347C37.6631 14.3143 37.5006 13.7759 37.5506 13.2357C37.5071 12.6968 37.6718 12.1618 38.0105 11.7429C38.3491 11.3239 38.8354 11.0534 39.3673 10.9881V15.4832ZM41.3869 15.4832V10.9881C41.9187 11.0534 42.405 11.3239 42.7436 11.7429C43.0823 12.1618 43.2471 12.6968 43.2035 13.2357C43.2509 13.7753 43.0875 14.3123 42.7481 14.7322C42.4088 15.1521 41.9203 15.4216 41.3869 15.4832ZM52.8115 14.779V12.0969C52.8115 10.139 51.5789 8.91535 49.5098 8.91535C47.4407 8.91535 46.2329 10.2139 46.1339 11.5675H48.1783C48.2476 11.2778 48.5545 10.7634 49.5049 10.7634C49.6826 10.7403 49.8627 10.7592 50.0315 10.8186C50.2008 10.878 50.3538 10.9763 50.4785 11.1057C50.6033 11.235 50.6968 11.392 50.7513 11.564C50.8057 11.736 50.8196 11.9185 50.7919 12.0969H48.8119C47.02 12.0969 45.9557 13.0509 45.9557 14.6292C45.9417 15.0058 46.0063 15.3812 46.1452 15.7311C46.2841 16.0809 46.4943 16.3975 46.7622 16.6602C47.03 16.9229 47.3495 17.1259 47.7 17.2562C48.0505 17.3864 48.4243 17.4409 48.797 17.4162C49.2178 17.4385 49.6375 17.3558 50.0192 17.1755C50.4008 16.9952 50.7325 16.7228 50.9849 16.3823C51.1492 16.6627 51.3888 16.8904 51.6764 17.0389C51.9635 17.1874 52.2868 17.2507 52.6085 17.2214H53.3065V15.3834C52.9649 15.3834 52.8115 15.2185 52.8115 14.779V14.779ZM50.7919 14.2795C50.8003 14.4763 50.7671 14.6726 50.6943 14.8554C50.6221 15.0383 50.5122 15.2036 50.3721 15.3404C50.2315 15.4773 50.0642 15.5826 49.8806 15.6494C49.6969 15.7162 49.5014 15.743 49.3069 15.728C48.5792 15.728 48.005 15.4633 48.005 14.6691C48.005 13.875 48.6436 13.7601 49.1831 13.7601H50.7919V14.2795V14.2795ZM31.7987 11.6824H30.3484V9.26497H28.3288V17.2214H31.8334C34.0262 17.2214 34.8034 15.7829 34.8034 14.4244C34.8133 12.6713 33.7243 11.6824 31.7987 11.6824ZM31.6502 15.4832H30.3484V13.4854H31.6502C32.3482 13.4854 32.7689 13.8051 32.7689 14.4843C32.7689 15.1636 32.368 15.4832 31.6502 15.4832V15.4832ZM72.9728 14.779V12.0969C72.9728 10.139 71.7403 8.91535 69.6712 8.91535C67.6021 8.91535 66.3943 10.2139 66.2953 11.5675H68.3396C68.4089 11.2778 68.7158 10.7634 69.6662 10.7634C69.8439 10.7403 70.0241 10.7592 70.1929 10.8186C70.3622 10.878 70.5151 10.9763 70.6399 11.1057C70.7646 11.235 70.8582 11.392 70.9126 11.564C70.9671 11.736 70.9809 11.9185 70.9532 12.0969H68.9732C67.1813 12.0969 66.1171 13.0509 66.1171 14.6292C66.1032 15.0058 66.1676 15.3812 66.3066 15.7311C66.4452 16.0809 66.6556 16.3975 66.9234 16.6602C67.1912 16.9229 67.511 17.1259 67.8614 17.2562C68.2119 17.3864 68.5856 17.4409 68.9584 17.4162C69.3831 17.4427 69.8078 17.3621 70.1944 17.1816C70.5805 17.0011 70.9161 16.7264 71.171 16.3823C71.3329 16.6578 71.568 16.8823 71.8497 17.0306C72.1313 17.1788 72.4481 17.2449 72.7649 17.2214H73.4629V15.3834C73.1114 15.3834 72.9728 15.2185 72.9728 14.779ZM70.9631 14.2795C70.9705 14.4761 70.9369 14.672 70.8641 14.8545C70.7913 15.037 70.6815 15.2019 70.5414 15.3387C70.4013 15.4753 70.234 15.5806 70.0508 15.6478C69.8677 15.7148 69.6726 15.7422 69.4781 15.728C68.7505 15.728 68.1763 15.4633 68.1763 14.6691C68.1763 13.875 68.8148 13.7601 69.3544 13.7601H70.9631V14.2795V14.2795ZM79.4227 12.2268H76.6358V9.26497H74.6162V17.2264H76.6358V14.0898H79.4227V17.2214H81.4423V9.26497H79.4227V12.2268Z" fill="#EF3124"/>
</svg>
