<svg width="99" height="33" viewBox="0 0 99 33" fill="none" xmlns="http://www.w3.org/2000/svg">
<path d="M49.8145 19.0488H51.4129C52.229 19.0488 52.8045 19.4668 52.8045 20.2055C52.8045 20.6235 52.6028 20.9828 52.2598 21.1662V21.179C52.7533 21.3238 52.9876 21.7803 52.9876 22.2349C52.9876 23.1332 52.2672 23.5365 51.4388 23.5365H49.8145V19.0488V19.0488ZM51.4185 20.882C51.7725 20.882 51.9742 20.629 51.9742 20.3064C51.9742 19.9837 51.7781 19.7509 51.4055 19.7509H50.6283V20.882H51.4185ZM51.5011 22.8362C51.9187 22.8362 52.1519 22.5649 52.1519 22.1854C52.1519 21.8133 51.9119 21.5401 51.5011 21.5401H50.6283V22.8362H51.5011V22.8362ZM55.2242 20.2385C55.6603 20.2385 56.1537 20.3834 56.4634 20.7188L56.1025 21.2688C55.9009 21.0672 55.5838 20.9205 55.268 20.9205C54.674 20.9205 54.2873 21.3696 54.2873 21.9196C54.2873 22.4641 54.6722 22.9315 55.2921 22.9315C55.6332 22.9315 55.9995 22.7537 56.2401 22.5209L56.5497 23.0892C56.2456 23.4118 55.7411 23.6135 55.2224 23.6135C54.1534 23.6135 53.4718 22.8618 53.4718 21.9251C53.4737 21.0085 54.1571 20.2385 55.2242 20.2385V20.2385ZM58.4871 20.2385C59.4093 20.2385 59.9157 20.915 59.9157 21.7674C59.9157 21.8683 59.9027 21.9764 59.8898 22.0773H57.6717C57.7229 22.64 58.1516 22.9315 58.6395 22.9315C58.9676 22.9315 59.3032 22.7867 59.5616 22.5777L59.8768 23.1533C59.5487 23.4448 59.0429 23.6153 58.5809 23.6153C57.512 23.6153 56.8427 22.8435 56.8427 21.9269C56.8446 20.9333 57.5212 20.2385 58.4871 20.2385ZM57.565 19.0488H58.1849V19.7821H57.565V19.0488V19.0488ZM59.1144 21.5273C59.1089 21.0965 58.8301 20.8454 58.4693 20.8454C58.0585 20.8454 57.7667 21.1166 57.6915 21.5273H59.1144ZM58.7277 19.0488H59.3414V19.7821H58.7277V19.0488ZM62.1683 20.3137H65.1086V23.5383H64.3062V20.9975H62.9714V23.5383H62.1683V20.3137V20.3137ZM65.9629 20.3137H66.6963V20.5539C66.6963 20.6749 66.6833 20.7811 66.6833 20.7811H66.6963C66.9054 20.4328 67.2977 20.2367 67.7338 20.2367C68.6066 20.2367 69.1623 20.926 69.1623 21.9251C69.1623 22.9499 68.5369 23.6135 67.6881 23.6135C67.3217 23.6135 66.9862 23.4485 66.7586 23.1588H66.7456C66.7456 23.1588 66.7641 23.2725 66.7641 23.4375V24.8032H65.9611V20.3137H65.9629V20.3137ZM67.5432 22.937C67.9854 22.937 68.3518 22.5759 68.3518 21.9379C68.3518 21.3256 68.0237 20.926 67.5543 20.926C67.1312 20.926 66.7389 21.2303 66.7389 21.9434C66.7407 22.4439 67.0189 22.937 67.5432 22.937V22.937ZM71.4007 20.2385C72.387 20.2385 73.1765 20.9407 73.1765 21.9269C73.1765 22.9187 72.387 23.6153 71.4057 23.6153C70.4249 23.6153 69.6348 22.9205 69.6348 21.9269C69.6366 20.9388 70.4268 20.2385 71.4007 20.2385V20.2385ZM71.4057 22.9315C71.93 22.9315 72.3667 22.5264 72.3667 21.9269C72.3667 21.3329 71.93 20.9223 71.4057 20.9223C70.8814 20.9223 70.4508 21.3329 70.4508 21.9269C70.4527 22.5264 70.8814 22.9315 71.4057 22.9315ZM73.8223 20.3137H74.5866V22.8545H75.5914V20.3137H76.3556V22.8545H77.3604V20.3137H78.1246V22.8545H78.5792V24.2954H77.8588V23.5365H73.8186V20.3137H73.8223V20.3137ZM80.5721 20.2385C81.4942 20.2385 82 20.915 82 21.7674C82 21.8683 81.9871 21.9764 81.9741 22.0773H79.7561C79.8073 22.64 80.2366 22.9315 80.7239 22.9315C81.052 22.9315 81.3875 22.7867 81.646 22.5777L81.9618 23.1533C81.6337 23.4448 81.1272 23.6153 80.6653 23.6153C79.5969 23.6153 78.9277 22.8435 78.9277 21.9269C78.9277 20.9333 79.6043 20.2385 80.5721 20.2385V20.2385ZM81.1969 21.5273C81.1914 21.0965 80.9132 20.8454 80.5518 20.8454C80.141 20.8454 79.8498 21.1166 79.7746 21.5273H81.1969V21.5273Z" fill="#2D3540"/>
<path d="M63.6147 6.17786V15.4411C63.6147 15.5804 63.503 15.6922 63.3636 15.6922H61.4719C61.3325 15.6922 61.2208 15.5804 61.2208 15.4411V6.17786C61.2208 6.03858 61.3325 5.92675 61.4719 5.92675H63.3636C63.503 5.92675 63.6147 6.03858 63.6147 6.17786ZM78.3589 5.92675H76.242C76.1316 5.92675 76.0329 5.99824 76.0015 6.10273L74.3262 11.5767L72.4857 6.09724C72.4505 5.99454 72.3555 5.92675 72.2476 5.92675H70.7697C70.6617 5.92675 70.5643 5.99639 70.5316 6.09724L68.691 11.5767L67.0151 6.10273C66.9825 5.99824 66.885 5.92675 66.7752 5.92675H64.6577C64.5769 5.92675 64.5004 5.96524 64.4541 6.03124C64.4066 6.09539 64.3937 6.17971 64.4196 6.25668L67.5283 15.5236C67.5635 15.6262 67.6585 15.694 67.767 15.694H69.4478C69.5564 15.694 69.6533 15.6244 69.6866 15.5236L71.5105 10.1101L73.3344 15.5236C73.3689 15.6262 73.4645 15.694 73.5725 15.694H75.2539C75.3619 15.694 75.4593 15.6244 75.492 15.5236L78.6014 6.25668C78.6266 6.18156 78.6143 6.09724 78.5662 6.03124C78.5168 5.96524 78.4397 5.92675 78.3589 5.92675ZM81.5435 5.92675H79.6518C79.5124 5.92675 79.4007 6.03858 79.4007 6.17786V15.4411C79.4007 15.5804 79.5124 15.6922 79.6518 15.6922H81.5435C81.6829 15.6922 81.7946 15.5804 81.7946 15.4411V6.17786C81.7946 6.03858 81.6829 5.92675 81.5435 5.92675ZM60.1241 15.3751C60.2345 15.4979 60.1445 15.694 59.9779 15.694H57.6587C57.565 15.694 57.4755 15.6519 57.4151 15.5786L57.0228 15.1056C56.2215 15.6244 55.268 15.9269 54.2453 15.9269C51.4221 15.9269 49.1269 13.6299 49.1269 10.8086C49.1269 7.98727 51.424 5.69024 54.2453 5.69024C57.0684 5.69024 59.3636 7.98727 59.3636 10.8086C59.3636 11.826 59.0644 12.7737 58.5494 13.5712L60.1241 15.3751V15.3751ZM55.5282 13.3109L54.513 12.0899C54.4063 11.9616 54.4982 11.7673 54.6635 11.7673H56.7878C56.8889 11.4667 56.9457 11.1441 56.9457 10.8104C56.9457 9.27968 55.807 7.96162 54.2434 7.96162C52.6798 7.96162 51.5412 9.28147 51.5412 10.8104C51.5412 12.3393 52.6798 13.6409 54.2434 13.6409C54.7202 13.6409 55.1526 13.5198 55.5282 13.3109ZM41.5209 21.0892C41.6034 21.6428 41.4293 21.872 41.2533 21.872C41.0626 21.872 40.8207 21.6483 40.5383 21.2046C40.2578 20.7684 40.157 20.2679 40.2945 20.0131C40.3862 19.8462 40.5787 19.773 40.8207 19.8646C41.2881 20.0424 41.4714 20.7592 41.5209 21.0892V21.0892ZM38.9306 22.2954C39.4916 22.7702 39.662 23.3349 39.365 23.7326C39.2001 23.9508 38.9324 24.0718 38.6116 24.0718C38.2963 24.0718 37.9755 23.9545 37.7537 23.7602C37.2441 23.3147 37.0938 22.5906 37.4274 22.1799C37.5575 22.0186 37.7684 21.9306 38.0232 21.9306C38.3311 21.9306 38.6538 22.0608 38.9306 22.2954V22.2954ZM37.992 26.8766C40.41 26.8766 43.0333 27.7052 45.9371 30.2791C46.2286 30.5375 46.6154 30.2167 46.3624 29.8959C43.5081 26.2918 40.8683 25.6062 38.2358 25.0269C35.0167 24.3174 33.3595 22.5062 32.2046 20.5154C31.9755 20.1194 31.8728 20.1891 31.8508 20.6987C31.8251 21.3202 31.8691 22.1451 32.0084 22.9535C31.8782 22.959 31.7481 22.9572 31.6161 22.9572C27.0092 22.9572 23.2751 19.2229 23.2751 14.6161C23.2751 10.0092 27.0092 6.27506 31.6161 6.27506C36.2229 6.27506 39.9572 10.0092 39.9572 14.6161C39.9572 14.9442 39.9407 15.2687 39.904 15.5859C39.2954 15.4759 38.0965 15.463 37.2551 15.5364C36.9379 15.5639 36.9837 15.7106 37.2221 15.7545C39.9792 16.2532 41.8729 17.9617 42.3074 21.0617C42.3166 21.1332 42.41 21.1552 42.4467 21.0928C43.5815 19.1991 44.2323 16.9846 44.2323 14.6161C44.2359 7.64994 38.586 2 31.6179 2C24.6499 2 19 7.64994 19 14.6179C19 21.586 24.6499 27.2359 31.6179 27.2359C33.4658 27.2359 35.3009 26.8766 37.992 26.8766V26.8766Z" fill="#FF8C00"/>
</svg>
