<svg width="99" height="25" viewBox="0 0 99 25" fill="none" xmlns="http://www.w3.org/2000/svg">
<path d="M50.1318 21.757V16.303C50.8233 17.1288 52.0713 18.0119 53.8189 18.0119C56.68 18.0119 58.6962 15.8421 58.6962 12.8275C58.6962 9.81259 56.68 7.64276 53.8189 7.64276C51.9945 7.64276 50.7272 8.60271 50.036 9.44778L49.5751 7.8347H47.9236V21.757H50.1318ZM53.2812 16.0343C51.4185 16.0343 50.1318 14.7096 50.1318 12.8278C50.1318 10.9457 51.4185 9.62066 53.2812 9.62066C55.1246 9.62066 56.3919 10.9457 56.3919 12.8278C56.3919 14.7096 55.1246 16.0346 53.2812 16.0346V16.0343ZM64.6898 7.64303C62.7506 7.64303 61.0414 8.64165 60.5421 10.3696L62.5777 10.7154C62.8848 10.1009 63.5761 9.52483 64.5747 9.52483C65.7845 9.52483 66.4948 10.3889 66.591 11.6947H64.4402C61.5023 11.6947 60.0428 12.9813 60.0428 14.8247C60.0428 16.6875 61.483 18.0122 63.5186 18.0122C65.1507 18.0122 66.2455 17.0713 66.7254 16.2456L67.1864 17.8203H68.8185V12.213C68.8185 9.31356 67.2438 7.64303 64.6898 7.64303V7.64303ZM64.037 16.1498C62.9616 16.1498 62.2703 15.5927 62.2703 14.7286C62.2703 13.9606 62.8274 13.4229 64.5172 13.4229H66.6103C66.6103 15.055 65.5733 16.1498 64.037 16.1498V16.1498ZM75.3901 15.036H75.0827L72.1449 7.83497H69.7828L74.2186 18.358L74.1034 18.6651C73.8154 19.4718 73.4699 19.7405 72.74 19.7405H70.8775L71.0695 21.7567H72.5864C74.4298 21.7567 75.4285 20.931 76.1006 19.0685L80.1907 7.83497H77.944L75.3901 15.036V15.036Z" fill="black"/>
<path d="M17.8201 11.9394C17.8201 7.01113 17.8201 4.547 19.3512 3.01613C20.8821 1.485 23.3462 1.485 28.2745 1.485H29.1457C34.0739 1.485 36.5381 1.485 38.0689 3.01613C39.6001 4.547 39.6001 7.01113 39.6001 11.9394V12.8106C39.6001 17.7389 39.6001 20.203 38.0689 21.7339C36.5381 23.265 34.0739 23.265 29.1457 23.265H28.2745C23.3462 23.265 20.8821 23.265 19.3512 21.7339C17.8201 20.203 17.8201 17.7389 17.8201 12.8106V11.9394Z" fill="#0077FF"/>
<path d="M29.4089 17.1757C24.4446 17.1757 21.6135 13.7726 21.4954 8.10976H23.9818C24.0635 12.2662 25.8968 14.0271 27.3487 14.3897V8.11003H29.6901V11.6945C31.124 11.5401 32.6304 9.90661 33.1384 8.11003H35.4798C35.0896 10.3242 33.4561 11.9577 32.2944 12.6294C33.4561 13.1739 35.3164 14.5986 36.0243 17.176H33.4471C32.8937 15.4515 31.5142 14.1175 29.6901 13.9362V17.176H29.4089V17.1757Z" fill="white"/>
</svg>
